<?xml version="1.0" encoding="UTF-8"?>
<svg id="Layer_1" data-name="Layer 1" xmlns="http://www.w3.org/2000/svg" viewBox="0 0 349.64 100.71">
  <defs>
    <style>
      .cls-1, .cls-2 {
        fill: #5b6274;
      }

      .cls-1, .cls-3 {
        stroke-width: 0px;
      }

      .cls-2 {
        font-family: BerlinSansFB-Reg, 'Berlin Sans FB';
        font-size: 28.28px;
      }

      .cls-3 {
        fill: #9acb5c;
      }
    </style>
  </defs>
  <path class="cls-1" d="m230.59,28.23h0c0-2.79,2.26-5.05,5.05-5.05h1.3c2.79,0,5.05,2.26,5.05,5.05v28.47c0,2.79-2.26,5.05-5.05,5.05h-1.3c-2.79,0-5.05-2.26-5.05-5.05h0c-1.15,3.37-5.66,5.74-11.48,5.74-5.43,0-10.03-1.91-13.7-5.74-3.6-3.9-5.43-8.65-5.43-14.24s1.84-10.33,5.43-14.16c3.67-3.9,8.27-5.82,13.7-5.82,5.82,0,10.33,2.37,11.48,5.74Zm-2.3,21.12c1.99-1.91,2.99-4.21,2.99-6.89s-.99-4.97-2.99-6.81c-1.91-1.91-4.29-2.83-7.12-2.83s-5.05.92-6.97,2.83c-1.91,1.84-2.83,4.13-2.83,6.81s.92,4.98,2.83,6.89c1.91,1.84,4.21,2.76,6.97,2.76s5.2-.92,7.12-2.76Z"/>
  <path class="cls-1" d="m73.56,27.74v-14.11c0-3.15,2.55-5.7,5.7-5.7h0c3.15,0,5.7,2.55,5.7,5.7v42.57c0,2.79-2.26,5.05-5.05,5.05h-1.3c-2.79,0-5.05-2.26-5.05-5.05h0c-1.15,3.37-5.66,5.74-11.47,5.74-5.43,0-10.02-1.91-13.69-5.74-3.59-3.9-5.43-8.64-5.43-14.23s1.84-10.33,5.43-14.15c3.67-3.9,8.26-5.81,13.69-5.81,5.81,0,10.33,2.37,11.47,5.74Zm-2.29,21.11c1.99-1.91,2.98-4.21,2.98-6.88s-.99-4.97-2.98-6.81c-1.91-1.91-4.28-2.83-7.11-2.83s-5.05.92-6.96,2.83c-1.91,1.84-2.83,4.13-2.83,6.81s.92,4.97,2.83,6.88c1.91,1.84,4.21,2.75,6.96,2.75s5.2-.92,7.11-2.75Z"/>
  <path class="cls-1" d="m308.18,41.96c0-6,1.9-10.78,5.69-14.43,3.87-3.72,8.73-5.54,14.58-5.54s10.4,1.9,13.97,5.62c3.57,3.72,5.39,8.28,5.39,13.74,0,1.29-.08,2.58-.23,3.72h-28.09c.23,4.56,4.1,7.44,10.1,7.44,2.82,0,5.4-.32,7.73-.98,2.94-.83,5.86,1.34,5.86,4.39h0c0,1.81-1.06,3.47-2.72,4.19-3.18,1.38-6.99,2.05-11.48,2.05-6.23,0-11.24-1.82-15.11-5.39-3.8-3.64-5.69-8.43-5.69-14.42v-.38Zm28.24-4.25c0-3.42-3.49-6.3-7.97-6.3-2.35,0-4.4.61-6.15,1.82-1.75,1.22-2.66,2.73-2.73,4.48h16.86Z"/>
  <path class="cls-1" d="m270.03,56.34c0-3.14,3.08-5.4,6.05-4.38,2.68.92,5.6,1.38,8.72,1.38,3.69,0,5.57-.83,5.57-2.56,0-.75-.6-1.36-1.88-1.88-1.28-.53-3.09-1.13-5.42-1.81-2.34-.68-4.22-1.43-5.65-2.11-4.44-2.18-6.63-5.57-6.63-10.32,0-3.69,1.43-6.63,4.37-8.66,2.94-2.11,6.4-3.16,10.55-3.16,3.04,0,5.8.44,8.23,1.29,1.8.63,3,2.35,3,4.26v.36c0,2.9-2.69,5.06-5.51,4.4-1.73-.4-3.54-.6-5.41-.6-3.16,0-4.75.75-4.75,2.26,0,2.18,3.39,2.64,7.61,3.84,3.69,1.13,6.1,2.03,8.51,3.84,2.49,1.81,3.77,4.44,3.77,8.06,0,7.46-5.5,12.35-16.65,12.35-3.97,0-7.85-.77-11.63-2.31-1.72-.7-2.83-2.4-2.83-4.26h0Z"/>
  <path class="cls-1" d="m99.63,22.17h0c3.19,0,5.78,2.59,5.78,5.78v16.28c0,4.9,2.83,7.12,7.05,7.12s7.05-2.22,7.05-7.12v-16.28c0-3.19,2.59-5.78,5.78-5.78h0c3.19,0,5.78,2.59,5.78,5.78v17.27c0,5.36-1.76,9.5-5.36,12.33-3.52,2.83-7.97,4.29-13.25,4.29s-9.73-1.46-13.33-4.29c-3.52-2.83-5.29-6.97-5.29-12.33v-17.27c0-3.19,2.59-5.78,5.78-5.78Z"/>
  <g>
    <path class="cls-1" d="m11.78,51.21v-9.48L0,51.75v4.4c0,3.19,2.59,5.78,5.78,5.78h25.92c2.89,0,5.24-2.35,5.24-5.24v-.23c0-2.89-2.35-5.24-5.24-5.24H11.78Z"/>
    <path class="cls-1" d="m16.04,40.81h13.52c2.89,0,5.24-2.35,5.24-5.24h0c0-2.89-2.35-5.24-5.24-5.24H11.78v-11.01h19.39c2.89,0,5.24-2.35,5.24-5.24v-.23c0-2.89-2.35-5.24-5.24-5.24H5.78C2.59,8.61,0,11.2,0,14.39v20.57c0,3.19,2.59,5.78,5.78,5.78h10.27v.08Z"/>
  </g>
  <path class="cls-3" d="m182.24,8.19c13.75,1.27,16.92,20.88,3.04,26.07-.21.08-.4-.17-.32.33l9.34,9.34v11.19l-29.11-29.11h16.4c.09,0,1.08-.37,1.28-.46,3.38-1.49,3.36-6.26.11-7.89-.21-.11-1.5-.56-1.61-.56h-31.4v32.27c0,.4.95,1.83,1.32,2.16,2.02,1.81,5.06,1.48,6.6-.76.16-.23.77-1.47.77-1.62v-16.62l29.11,29.11h-11.52s-.06-.4-.31-.66c-2.73-2.8-5.57-5.54-8.38-8.25v8.91h-26.72V8.19h41.39Z"/>
  <path class="cls-1" d="m256.43,7.04c3.63,0,6.57,2.86,6.57,6.57s-2.94,6.49-6.57,6.49-6.57-2.86-6.57-6.49,2.94-6.57,6.57-6.57Zm-5.72,49.58v-27.44c0-3.18,2.58-5.76,5.76-5.76h0c3.18,0,5.76,2.58,5.76,5.76v27.44c0,3.18-2.58,5.76-5.76,5.76h0c-3.18,0-5.76-2.58-5.76-5.76Z"/>
  <text class="cls-2" transform="translate(57.64 94.97)"><tspan x="0" y="0">Learning Platform</tspan></text>
  <g>
    <g>
      <path class="cls-1" d="m345.36,11.11h-1.2v-1.82c0-.67-.55-1.22-1.22-1.22h-2.18v3.04h-1.2v-4.23h3.38c1.33,0,2.42,1.08,2.42,2.42v1.82Z"/>
      <path class="cls-1" d="m342.94,8.07h-3.38V3.24h3.38c1.33,0,2.42,1.08,2.42,2.42s-1.08,2.42-2.42,2.42Zm-2.18-1.2h2.18c.67,0,1.22-.55,1.22-1.22s-.55-1.22-1.22-1.22h-2.18v2.44Z"/>
    </g>
    <path class="cls-1" d="m342.46,14.35c-.97,0-1.91-.19-2.79-.56-.85-.36-1.62-.88-2.28-1.54-.66-.66-1.18-1.43-1.54-2.28-.37-.88-.56-1.82-.56-2.79s.19-1.91.56-2.79c.36-.85.88-1.62,1.54-2.28.66-.66,1.43-1.18,2.28-1.54.88-.37,1.82-.56,2.79-.56s1.91.19,2.79.56c.85.36,1.62.88,2.28,1.54.66.66,1.18,1.43,1.54,2.28.37.88.56,1.82.56,2.79s-.19,1.91-.56,2.79c-.36.85-.88,1.62-1.54,2.28-.66.66-1.43,1.18-2.28,1.54-.88.37-1.82.56-2.79.56Zm0-13.64c-3.56,0-6.46,2.9-6.46,6.46s2.9,6.46,6.46,6.46,6.46-2.9,6.46-6.46-2.9-6.46-6.46-6.46Z"/>
  </g>
</svg>